PathFileType	4	(X/Y/Z)	 s10c0301.trc
DataRate	CameraRate	NumFrames	NumMarkers	Units	OrigDataRate	OrigDataStartFrame	OrigNumFrames
200	200	4	50	mm	200	1501	2000
Frame#	Time	racr			lacr			c7			jug			rlel			rdr			llel			ldr			s2			lic			ric			lasi			rasi			rpsi			lpsi			rgt			lgt			rth1			rth2			rth3			rth4			rlfc			rmfc			rsh1			rsh2			rsh3			rsh4			rlmal			rmmal			rcal			rtoe			rmt5			lth1			lth2			lth4			lth3			llfc			lmfc			llmal			lmmal			lcal			lmt5			lsh1			lsh2			lsh3			lsh4			ltoe			SBIKE			LBIKE			RBIKE			
		X1	Y1	Z1	X2	Y2	Z2	X3	Y3	Z3	X4	Y4	Z4	X5	Y5	Z5	X6	Y6	Z6	X7	Y7	Z7	X8	Y8	Z8	X9	Y9	Z9	X10	Y10	Z10	X11	Y11	Z11	X12	Y12	Z12	X13	Y13	Z13	X14	Y14	Z14	X15	Y15	Z15	X16	Y16	Z16	X17	Y17	Z17	X18	Y18	Z18	X19	Y19	Z19	X20	Y20	Z20	X21	Y21	Z21	X22	Y22	Z22	X23	Y23	Z23	X24	Y24	Z24	X25	Y25	Z25	X26	Y26	Z26	X27	Y27	Z27	X28	Y28	Z28	X29	Y29	Z29	X30	Y30	Z30	X31	Y31	Z31	X32	Y32	Z32	X33	Y33	Z33	X34	Y34	Z34	X35	Y35	Z35	X36	Y36	Z36	X37	Y37	Z37	X38	Y38	Z38	X39	Y39	Z39	X40	Y40	Z40	X41	Y41	Z41	X42	Y42	Z42	X43	Y43	Z43	X44	Y44	Z44	X45	Y45	Z45	X46	Y46	Z46	X47	Y47	Z47	X48	Y48	Z48	X49	Y49	Z49	X50	Y50	Z50	
1501	7.5050	699.519357	1335.212785	-21.344676	697.367459	1305.428424	-327.689722	681.015385	1340.297841	-173.144459	671.226136	1195.744902	-156.621848	619.862753	1079.963319	75.683413	647.652357	874.733362	-12.229870	585.727583	1069.254781	-456.685797	669.038658	888.903675	-380.122401	149.837204	1134.116572	-196.124468	325.535556	1133.611913	-340.290232	322.069341	1138.418023	-37.655889	336.021347	1049.355916	-313.324249	319.030308	1051.747226	-71.997150	198.583515	1185.020428	-141.877653	205.436469	1189.152120	-253.950056	226.302759	1036.708960	-6.404494	195.147460	1002.843559	-387.540238	309.687245	926.121329	14.155034	386.473281	882.706562	1.694096	428.937235	808.529004	-0.336392	410.008488	909.666783	-10.375780	493.101947	727.820513	-17.782900	477.009558	719.007256	-135.958222	380.064473	692.088111	8.404192	311.385211	638.237902	-12.407779	227.217539	624.528241	-18.855554	326.447694	616.141214	-39.723339	132.950275	591.481335	-37.092993	158.731901	585.393401	-118.797101	94.123154	630.596758	-87.229410	176.727783	401.799494	-95.851322	119.079581	463.258141	-33.193662	229.615804	877.011427	-404.224062	269.695991	802.685059	-385.018114	304.200560	812.591590	-376.632844	265.404679	715.036278	-369.436768	303.392328	614.990298	-346.509735	274.033188	609.910483	-236.504164	157.876399	265.158612	-369.733106	170.079878	262.890118	-285.808759	100.872014	242.691474	-331.100064	262.190351	162.243516	-386.617715	230.420294	512.765635	-391.635772	232.014865	426.448490	-379.084082	188.823251	348.358992	-378.952391	259.852758	421.928448	-353.426298	345.666102	175.801138	-325.388855	-204.450439	834.130554	-224.765425	-78.233266	81.755829	-423.643650	-102.714721	80.513574	-24.403096	
1502	7.5100	699.547213	1335.200632	-19.707618	696.758650	1305.514567	-325.712835	680.480857	1340.268419	-171.706092	670.780227	1195.726767	-155.177183	619.339769	1079.354302	76.368428	647.531873	874.677919	-12.065744	586.182502	1069.474373	-455.223416	669.173717	888.634926	-379.974656	149.425147	1131.336328	-198.762029	327.868023	1130.267210	-340.577725	320.017402	1136.501653	-38.615907	337.216088	1045.978464	-312.573889	317.235900	1051.327928	-73.151933	197.513409	1182.747968	-144.497586	206.697098	1186.712263	-257.213156	223.566574	1035.263128	-6.628855	198.588021	1000.388247	-390.255071	309.482767	928.790184	12.900080	387.850157	887.631414	1.418944	433.004308	815.102993	1.040349	410.414811	915.207160	-10.804407	498.848137	735.381756	-16.308713	483.927338	725.589901	-135.178701	385.793608	699.445205	9.495772	317.493985	645.639576	-11.340329	232.892817	631.973750	-18.426374	332.567137	623.511364	-38.425182	138.311347	597.622490	-37.715797	164.616455	592.815876	-118.767801	98.248775	635.325734	-87.403152	187.379417	408.898446	-96.052303	128.763786	469.186318	-32.798736	228.815464	875.976938	-405.341120	266.595580	800.678241	-386.012358	301.509273	809.432141	-376.720130	259.985475	713.007722	-371.070371	295.515974	611.929553	-347.501189	263.904936	607.759135	-237.549569	150.067843	262.230905	-370.200444	162.480913	259.746011	-286.519811	93.178935	240.911925	-331.639463	252.960685	157.269949	-387.095702	223.249668	509.361804	-392.318610	224.368913	423.077690	-379.443210	180.900663	345.122202	-379.559894	252.073937	418.553790	-353.619472	336.655993	169.283843	-325.857540	-204.466534	834.153635	-224.796311	-78.269098	81.705422	-423.644022	-102.712759	80.508132	-24.410461	
1503	7.5150	699.563039	1335.095614	-18.135628	696.209927	1305.585409	-323.617675	679.947980	1340.137163	-170.254408	670.572393	1195.580699	-153.745414	618.860065	1078.805187	77.118417	647.358725	874.651075	-11.897520	586.600253	1069.751423	-453.705043	669.383907	888.302942	-379.665668	149.032620	1128.692534	-201.761308	330.157972	1126.886665	-340.626637	318.241917	1134.633562	-39.478314	338.397026	1042.300722	-311.363790	315.861933	1050.921233	-73.362553	196.185435	1180.721500	-146.989098	207.863090	1184.443066	-259.653912	220.392601	1034.141876	-7.133316	202.194336	998.306647	-392.932685	309.136311	931.279981	11.948182	389.016929	892.632079	1.602248	436.567563	821.792345	2.648620	410.579079	920.724300	-11.422270	504.504977	742.745522	-14.842893	490.714143	732.161692	-134.453515	391.190094	706.887451	10.625110	323.403124	653.112119	-10.030945	238.703655	639.079663	-18.002750	338.528926	630.648635	-37.166419	144.285196	603.053666	-38.125337	170.879959	599.299687	-118.632435	102.871829	639.543898	-87.551586	198.702767	415.672454	-95.622064	138.342773	474.498410	-32.495025	228.042828	875.014402	-406.368768	263.805299	798.788439	-387.209144	298.741039	806.578887	-377.195037	254.971059	711.175972	-373.036466	287.749794	609.157822	-348.893485	254.645615	605.771272	-239.180072	142.185836	259.902056	-370.985139	154.707848	257.383346	-287.528086	85.350514	240.028101	-332.686854	243.391573	153.029960	-387.493736	216.458759	506.381995	-393.328872	217.098622	420.170008	-380.083114	173.334789	342.415061	-380.442237	244.390698	415.550798	-353.825791	327.333725	163.368787	-326.213345	-204.593091	833.945363	-224.742627	-78.278028	81.704955	-423.666337	-102.710115	80.525410	-24.425807	
1504	7.5200	699.528336	1334.877735	-16.682909	695.701798	1305.660486	-321.585887	679.599551	1339.951038	-169.885297	669.370078	1195.463144	-153.294488	618.468627	1078.153204	77.922019	647.173969	874.663718	-11.677082	587.104925	1069.978574	-452.204105	669.635978	887.959284	-379.143092	149.960286	1126.120121	-207.107851	332.693911	1123.788677	-340.662039	316.526135	1133.048854	-40.352363	339.734693	1039.898588	-310.611855	315.210287	1050.018494	-71.881584	195.171130	1178.582721	-149.548860	209.146059	1181.680434	-262.157329	216.868405	1033.280799	-7.941549	205.655484	996.748504	-395.293477	308.763204	933.876899	11.192798	389.952929	897.786250	2.034182	439.692746	828.339681	4.320269	410.933612	926.470143	-11.000049	510.040450	750.274019	-13.268671	497.358477	738.722981	-133.788836	396.672467	714.319021	11.602404	329.169005	660.413628	-8.950887	244.586009	646.049535	-17.628743	344.531938	637.365348	-35.863593	150.609175	607.777414	-38.229320	177.535552	604.873783	-118.395058	107.908375	642.764507	-87.694694	210.036168	421.730251	-95.111102	148.116807	479.021807	-32.191599	227.347940	874.199889	-407.502015	262.751453	797.796005	-389.361351	296.241412	804.048156	-377.856709	250.331775	709.700942	-375.266642	279.977733	606.596399	-350.283008	246.472452	604.110226	-241.040645	134.129550	257.982668	-371.985598	146.846966	255.766594	-288.755350	77.280124	239.356646	-333.440187	233.664420	149.245476	-388.000900	209.785734	504.041549	-394.567206	210.002613	417.901532	-380.977972	166.100231	340.143906	-381.657276	236.968560	413.240967	-354.379735	317.740166	158.219020	-326.589738	-204.604954	833.947414	-224.775284	-78.259236	81.718124	-423.664992	-102.710473	80.512273	-24.412952	
